<svg xmlns="http://www.w3.org/2000/svg" viewBox="0 0 730.14 123.98"><defs><style>.cls-1{fill:#0071aa;}</style></defs><g id="Layer_2" data-name="Layer 2"><g id="Layer_1-2" data-name="Layer 1"><path class="cls-1" d="M210,62.18V62c0-18.4,13.76-33.64,32.9-33.64a33.63,33.63,0,0,1,23.23,8.46,4,4,0,0,1,1.49,3,3.77,3.77,0,0,1-3.72,3.62,4.36,4.36,0,0,1-2.41-.83c-5-4.46-10.69-7.44-18.68-7.44-14.4,0-25.18,11.72-25.18,26.67V62c0,15.05,10.87,26.85,25.18,26.85,8.09,0,13.75-2.79,19.33-7.89a3.3,3.3,0,0,1,2.32-1A3.65,3.65,0,0,1,268,83.45a3.41,3.41,0,0,1-1.21,2.6c-6.41,5.86-13.47,9.57-24.15,9.57C223.89,95.62,210,80.85,210,62.18Z"/><path class="cls-1" d="M280.91,29.84a3.58,3.58,0,1,1,7.15,0V91.35A3.49,3.49,0,0,1,284.53,95a3.57,3.57,0,0,1-3.62-3.63Z"/><path class="cls-1" d="M301.06,80.57v-.19c0-10.12,8.36-15.51,20.53-15.51a51.26,51.26,0,0,1,14.77,2V65.24c0-8.64-5.29-13.1-14.3-13.1a29.87,29.87,0,0,0-12.46,2.7,3.77,3.77,0,0,1-1.3.28,3.17,3.17,0,0,1-3.15-3.07,3.3,3.3,0,0,1,1.94-3,38,38,0,0,1,15.71-3.25c6.78,0,12,1.77,15.52,5.3,3.25,3.25,4.92,7.9,4.92,14V91.44A3.4,3.4,0,0,1,339.81,95a3.31,3.31,0,0,1-3.45-3.35V87.26A21,21,0,0,1,319,95.53C310.07,95.53,301.06,90.42,301.06,80.57Zm35.4-3.71V72.21a50.21,50.21,0,0,0-14.13-2c-9,0-14,3.9-14,9.94v.18c0,6,5.58,9.58,12.09,9.58C329.21,89.87,336.46,84.47,336.46,76.86Z"/><path class="cls-1" d="M355.85,89.4a3.23,3.23,0,0,1-1.3-2.6,3.12,3.12,0,0,1,3.16-3.07,2.9,2.9,0,0,1,1.77.56,27,27,0,0,0,15.24,5.11c5.75,0,9.93-3,9.93-7.62V81.6c0-4.84-5.66-6.7-12-8.46-7.53-2.14-15.89-4.74-15.89-13.57v-.18c0-8.27,6.88-13.75,16.36-13.75a33.37,33.37,0,0,1,15.33,4.09,3.44,3.44,0,0,1,1.76,3,3.11,3.11,0,0,1-3.15,3.07,3.69,3.69,0,0,1-1.59-.37A26,26,0,0,0,373,51.67c-5.67,0-9.29,3-9.29,7v.19c0,4.56,5.94,6.32,12.36,8.27,7.43,2.23,15.42,5.11,15.42,13.75V81c0,9.1-7.53,14.4-17.1,14.4A33.2,33.2,0,0,1,355.85,89.4Z"/><path class="cls-1" d="M401.17,89.4a3.23,3.23,0,0,1-1.3-2.6A3.12,3.12,0,0,1,403,83.73a2.9,2.9,0,0,1,1.77.56A27,27,0,0,0,420,89.4c5.76,0,9.94-3,9.94-7.62V81.6c0-4.84-5.67-6.7-12-8.46C410.47,71,402.1,68.4,402.1,59.57v-.18c0-8.27,6.88-13.75,16.36-13.75a33.37,33.37,0,0,1,15.33,4.09,3.44,3.44,0,0,1,1.76,3,3.11,3.11,0,0,1-3.15,3.07,3.72,3.72,0,0,1-1.59-.37,26,26,0,0,0-12.54-3.72c-5.67,0-9.29,3-9.29,7v.19c0,4.56,5.94,6.32,12.36,8.27,7.43,2.23,15.42,5.11,15.42,13.75V81c0,9.1-7.53,14.4-17.1,14.4A33.25,33.25,0,0,1,401.17,89.4Z"/><path class="cls-1" d="M450,31.42a3.87,3.87,0,0,1,4.18-3.81c2.42,0,4.28,1.49,4.28,3.81v1.21c0,2.22-1.86,3.8-4.28,3.8a3.92,3.92,0,0,1-4.18-3.8Zm.65,18.21A3.62,3.62,0,0,1,454.2,46a3.58,3.58,0,0,1,3.63,3.63V91.35A3.5,3.5,0,0,1,454.29,95a3.57,3.57,0,0,1-3.62-3.63Z"/><path class="cls-1" d="M475.65,33.18a3.71,3.71,0,0,1,3.63-3.72h19c20.44,0,34.57,14,34.57,32.34V62c0,18.3-14.13,32.52-34.57,32.52h-19a3.71,3.71,0,0,1-3.63-3.71Zm22.58,54.55c16.45,0,26.95-11.15,26.95-25.55V62c0-14.4-10.5-25.74-26.95-25.74H483V87.73Z"/><path class="cls-1" d="M544.09,70.72v-.18a25,25,0,0,1,50.08-.19v.19A24.93,24.93,0,0,1,569,95.62,24.61,24.61,0,0,1,544.09,70.72Zm42.75,0v-.18c0-10.32-7.72-18.77-17.84-18.77-10.42,0-17.57,8.45-17.57,18.58v.19c0,10.31,7.62,18.68,17.75,18.68C579.59,89.22,586.84,80.85,586.84,70.72Z"/><path class="cls-1" d="M604.08,70.72v-.18c0-13.57,10.59-25.09,24.63-25.09a24.81,24.81,0,0,1,17.65,7,3.34,3.34,0,0,1,1.11,2.51A3.42,3.42,0,0,1,644,58.36a3.64,3.64,0,0,1-2.32-.83c-3.44-3.16-7.34-5.76-13.11-5.76-9.75,0-17.19,8.27-17.19,18.58v.19c0,10.41,7.62,18.68,17.66,18.68,5.48,0,9.85-2.51,13.38-5.86a2.85,2.85,0,0,1,2-.93,3.35,3.35,0,0,1,3.25,3.25,3.27,3.27,0,0,1-.92,2.23c-4.56,4.56-10,7.71-18.12,7.71A24.66,24.66,0,0,1,604.08,70.72Z"/><path class="cls-1" d="M657.48,89.4a3.23,3.23,0,0,1-1.3-2.6,3.12,3.12,0,0,1,3.16-3.07,2.9,2.9,0,0,1,1.77.56,27,27,0,0,0,15.24,5.11c5.76,0,9.94-3,9.94-7.62V81.6c0-4.84-5.67-6.7-12-8.46-7.52-2.14-15.89-4.74-15.89-13.57v-.18c0-8.27,6.88-13.75,16.36-13.75a33.37,33.37,0,0,1,15.33,4.09,3.44,3.44,0,0,1,1.76,3,3.11,3.11,0,0,1-3.15,3.07,3.72,3.72,0,0,1-1.59-.37,26,26,0,0,0-12.54-3.72c-5.67,0-9.29,3-9.29,7v.19c0,4.56,5.94,6.32,12.36,8.27,7.43,2.23,15.42,5.11,15.42,13.75V81c0,9.1-7.53,14.4-17.1,14.4A33.25,33.25,0,0,1,657.48,89.4Z"/><path class="cls-1" d="M725.75,25.92a15,15,0,1,0,4.39,10.62A14.92,14.92,0,0,0,725.75,25.92ZM715.13,49.09a12.55,12.55,0,1,1,12.54-12.55A12.56,12.56,0,0,1,715.13,49.09Z"/><path class="cls-1" d="M718.57,36.92a4.26,4.26,0,0,0,2.92-4.12,3.91,3.91,0,0,0-1.87-3.42,9,9,0,0,0-5.07-1.26,29.71,29.71,0,0,0-4.83.45V44.92h2.36V37.69h3q3.64,0,4.65,7.23h2.36a22.5,22.5,0,0,0-1.37-5.45A5.83,5.83,0,0,0,718.57,36.92ZM715,35.87h-2.89V30.14a24,24,0,0,1,2.47-.1q4.66,0,4.66,2.9C719.21,34.9,717.79,35.87,715,35.87Z"/><path class="cls-1" d="M157.51,1a2.36,2.36,0,0,0-1.88-1,2.12,2.12,0,0,0-.75.14L1.43,56.94A2.19,2.19,0,0,0,1.33,61l46,19.56.17.52,14.23,41.34A2.42,2.42,0,0,0,62,123a1.92,1.92,0,0,0,.54.56,2.08,2.08,0,0,0,.83.38,2,2,0,0,0,.94,0,2.1,2.1,0,0,0,.72-.31,1.66,1.66,0,0,0,.42-.36l20.07-21.65a2.14,2.14,0,0,0,.58-1.57,2.16,2.16,0,0,0-.71-1.53,2.19,2.19,0,0,0-3.09.13l-7.06,7.6,4.42-14.72,1.26.49,58,22.84a2.17,2.17,0,0,0,1.91-.14,2.23,2.23,0,0,0,1.07-1.58L157.84,2.52ZM77.32,85.75a2.63,2.63,0,0,0-.38.56l-.21.32a2.17,2.17,0,0,0-.5.86l-8,26.28-3.55,3.84L51.1,78.21a2.19,2.19,0,0,0-1.21-1.3L8.12,59.14l132-48.85L61.31,66.59c-1,.69-5.62,4.33-5.62,4.33s2,1.49,3.22.84l85.29-59ZM136.94,108,83.74,87.09,150.45,14.3Z"/></g></g></svg>