<svg xmlns="http://www.w3.org/2000/svg" viewBox="0 0 171.3 168.64"><defs><style>.cls-1{fill:#0072aa;}.cls-2{fill:#339ccc;}.cls-3,.cls-4{fill:#fff;}.cls-4{fill-rule:evenodd;}.cls-5{fill:#369bcc;}</style></defs><g id="Layer_2" data-name="Layer 2"><g id="Layer_2-2" data-name="Layer 2"><path class="cls-1" d="M129.38,43.71h25.84A9.55,9.55,0,0,1,161.43,46,86,86,0,0,0,85.3,0V32.22A53.56,53.56,0,0,1,122.21,47,9.54,9.54,0,0,1,129.38,43.71Z"/><rect class="cls-2" x="125.15" y="49.08" width="34.31" height="34.31" rx="4.24"/><path class="cls-3" d="M135.91,78a.83.83,0,0,1-.82-.77l-.87-16.18a.81.81,0,0,1,.22-.59.79.79,0,0,1,.56-.27h0a.82.82,0,0,1,.85.77l.83,15.42h12.65L150.15,61a.8.8,0,1,1,1.6.08l-.87,16.18a.82.82,0,0,1-.81.77Zm9.37-3.92a.64.64,0,0,1-.48-.21.67.67,0,0,1-.19-.5l.28-12.11a.68.68,0,1,1,1.35.05L146,73.44A.69.69,0,0,1,145.28,74.12Zm-4.62,0a.71.71,0,0,1-.67-.7l-.28-12.13a.66.66,0,0,1,.18-.49.63.63,0,0,1,.47-.2.69.69,0,0,1,.7.67l.28,12.1A.75.75,0,0,1,140.66,74.12Zm-8.59-16a.81.81,0,0,1,0-1.62h6.47V53.71a.51.51,0,0,1,.58-.53h7.73a.52.52,0,0,1,.59.53v2.83h6.47a.81.81,0,0,1,0,1.62Zm7.81-1.62h6.21v-2h-6.21Z"/><rect class="cls-2" x="86.39" y="88.28" width="34.31" height="34.31" rx="4.24"/><g id="Page-1"><g id="Artboard"><g id="save"><path class="cls-3" d="M112.29,116.53H95.67a3.15,3.15,0,0,1-3.14-3.14V96.77a3.15,3.15,0,0,1,3.14-3.14h13.06a.73.73,0,0,1,.54.23l5.94,5.93a.79.79,0,0,1,.22.54v13.06A3.14,3.14,0,0,1,112.29,116.53ZM95.67,95.17a1.6,1.6,0,0,0-1.6,1.6v16.62a1.61,1.61,0,0,0,1.6,1.61h16.62a1.61,1.61,0,0,0,1.61-1.61V100.65l-5.49-5.48Z"/><path class="cls-3" d="M109.92,116.53a.77.77,0,0,1-.77-.76V107H98.82v8.73a.77.77,0,0,1-1.54,0v-9.5a.78.78,0,0,1,.77-.77h11.87a.78.78,0,0,1,.77.77v9.5A.77.77,0,0,1,109.92,116.53Z"/><path class="cls-3" d="M107.54,101.1H98.05a.77.77,0,0,1-.77-.77V94.4a.77.77,0,0,1,1.54,0v5.17h8.72a.77.77,0,1,1,0,1.53Z"/></g></g></g><rect class="cls-2" x="47.47" y="49.16" width="34.51" height="34.51" rx="4.24"/><path class="cls-3" d="M58.49,78.43a3.29,3.29,0,0,1-3.28-3.28V66.42a3.28,3.28,0,0,1,3.28-3.28H59v-3a5.77,5.77,0,1,1,11.54,0v3H71a3.28,3.28,0,0,1,3.28,3.28v8.73A3.29,3.29,0,0,1,71,78.43Zm0-13.72a1.72,1.72,0,0,0-1.71,1.71v8.73a1.71,1.71,0,0,0,1.71,1.7H71a1.7,1.7,0,0,0,1.71-1.7V66.42A1.71,1.71,0,0,0,71,64.71ZM64.72,56a4.21,4.21,0,0,0-4.2,4.2v3h8.4v-3A4.2,4.2,0,0,0,64.72,56Zm0,17.45a.79.79,0,0,1-.79-.79V70.71l-.15-.14a1.39,1.39,0,0,1-.48-1.06,1.41,1.41,0,1,1,2.36,1.06l-.15.14v1.94A.79.79,0,0,1,64.72,73.44Z"/><rect class="cls-2" x="9.49" y="87.53" width="34.31" height="34.31" rx="4.24"/><rect class="cls-2" x="9.79" y="87.84" width="33.69" height="33.69" rx="3.93" transform="translate(131.32 78.04) rotate(90)"/><g id="Page-1-2" data-name="Page-1"><g id="Dribbble-Light-Preview"><g id="icons"><path class="cls-4" d="M15.13,115.81a11.09,11.09,0,0,1,7.17-10.43l.51-.19-.42-.34a6.78,6.78,0,1,1,8.5,0l-.42.34.5.19a11.09,11.09,0,0,1,7.18,10.43Zm11.51-9.46a9.28,9.28,0,0,0-9.5,7.34l-.08.37H36.22l-.08-.37A9.28,9.28,0,0,0,26.64,106.35Zm0-11.81a5,5,0,1,0,5,5A5,5,0,0,0,26.64,94.54Z"/></g></g></g><rect class="cls-1" x="39.38" y="12.39" width="26.23" height="26.23" rx="5"/><rect class="cls-1" x="9.62" y="46.86" width="22.24" height="22.24" rx="4.24"/><rect class="cls-1" x="51.88" y="91.27" width="16.59" height="16.59" rx="4.24"/><rect x="29.19" y="139.7" width="5.3" height="5.3" rx="2.01"/><path class="cls-3" d="M76.62,134.08c-.55-.09-48.13,0-48.13,0l-1.2,1.55v30.54l1.19,1.19H76.62Z"/><rect class="cls-3" x="26.01" y="132.64" width="104.56" height="36" rx="2.74"/><path class="cls-2" d="M127.83,135.11a.28.28,0,0,1,.27.27V165.9a.28.28,0,0,1-.27.27H28.76a.28.28,0,0,1-.27-.27V135.38a.28.28,0,0,1,.27-.27h99.07m0-2.47H28.76A2.75,2.75,0,0,0,26,135.38V165.9a2.76,2.76,0,0,0,2.75,2.74h99.07a2.75,2.75,0,0,0,2.74-2.74V135.38a2.74,2.74,0,0,0-2.74-2.74Z"/><path class="cls-1" d="M171.3,86a85.65,85.65,0,0,0-6.48-32.77V79.15a9.62,9.62,0,0,1-9.6,9.6H139a53.71,53.71,0,0,1-19.28,38.52h7.52a8.7,8.7,0,0,1,8.69,8.69v19.53A85.85,85.85,0,0,0,171.3,86Z"/><path class="cls-5" d="M59.49,157.36a5.93,5.93,0,0,1-2.68,1.9,10.92,10.92,0,0,1-3.88.65,7.57,7.57,0,0,1-4-1A6.72,6.72,0,0,1,46.32,156a10.14,10.14,0,0,1-1-4.4v-1.4a9.39,9.39,0,0,1,1.93-6.29,6.67,6.67,0,0,1,5.38-2.26,7.06,7.06,0,0,1,4.71,1.47,6.28,6.28,0,0,1,2.1,4.23h-3a3.42,3.42,0,0,0-3.73-3.21,3.63,3.63,0,0,0-3.15,1.49A7.68,7.68,0,0,0,48.45,150v1.36a7.16,7.16,0,0,0,1.22,4.47A4,4,0,0,0,53,157.44a4.48,4.48,0,0,0,3.37-1.07v-3.48H52.75v-2.35h6.74Z"/><path class="cls-5" d="M62.88,159.66V141.89h5.25a8.24,8.24,0,0,1,4.18,1.05,7.14,7.14,0,0,1,2.83,3,9.56,9.56,0,0,1,1,4.42v.89a9.44,9.44,0,0,1-1,4.44,7.12,7.12,0,0,1-2.87,3,8.62,8.62,0,0,1-4.27,1ZM66,144.38V157.2h2a4.65,4.65,0,0,0,3.73-1.52A6.63,6.63,0,0,0,73,151.31v-1a6.77,6.77,0,0,0-1.26-4.42,4.46,4.46,0,0,0-3.65-1.53Z"/><path class="cls-5" d="M82.3,153.07v6.59H79.21V141.89H86a6.89,6.89,0,0,1,4.73,1.55,5.23,5.23,0,0,1,1.75,4.11,5.06,5.06,0,0,1-1.71,4.07,7.2,7.2,0,0,1-4.8,1.45Zm0-2.49H86a3.7,3.7,0,0,0,2.52-.77,2.89,2.89,0,0,0,.86-2.24,3.05,3.05,0,0,0-.88-2.3,3.36,3.36,0,0,0-2.41-.89H82.3Z"/><path class="cls-5" d="M101.72,152.83H98.28v6.83H95.19V141.89h6.25a7.27,7.27,0,0,1,4.75,1.38,4.87,4.87,0,0,1,1.67,4,4.93,4.93,0,0,1-.86,3,5.36,5.36,0,0,1-2.4,1.85l4,7.41v.15h-3.31Zm-3.44-2.49h3.17a3.52,3.52,0,0,0,2.45-.79,2.74,2.74,0,0,0,.87-2.15,2.91,2.91,0,0,0-.81-2.21,3.47,3.47,0,0,0-2.42-.81H98.28Z"/><rect class="cls-1" y="75.27" width="8.83" height="8.83" rx="3.31"/><rect class="cls-1" x="68.83" y="118.18" width="8.83" height="8.83" rx="3.31"/><rect class="cls-1" x="70.32" y="3.05" width="8.83" height="8.83" rx="3.31"/><rect class="cls-1" x="51.61" y="119.04" width="5.3" height="5.3" rx="2.01"/><rect class="cls-1" x="72.08" y="32.15" width="5.3" height="5.3" rx="2.01"/><rect class="cls-1" x="36.89" y="44.47" width="5.3" height="5.3" rx="2.01"/><rect class="cls-1" x="31.86" y="75.81" width="5.3" height="5.3" rx="2.01"/><rect class="cls-1" x="20.1" y="30.85" width="9.79" height="9.79" rx="2.4"/><rect class="cls-2" x="37.5" y="82.44" width="16" height="5.99" transform="translate(-47.08 57.2) rotate(-45)"/><rect class="cls-2" x="76.33" y="82.44" width="16" height="5.99" transform="translate(85.11 -34.61) rotate(45)"/><rect class="cls-2" x="115.17" y="82.44" width="16" height="5.99" transform="translate(-24.34 112.11) rotate(-45)"/></g></g></svg>