<svg xmlns="http://www.w3.org/2000/svg" xmlns:xlink="http://www.w3.org/1999/xlink" viewBox="0 0 136.41 176.58"><defs><style>.cls-1{filter:url(#luminosity-noclip);}.cls-2{mask:url(#mask);}.cls-3{fill:#03445e;}.cls-4{fill:#379ccd;}</style><filter id="luminosity-noclip" x="0" y="0" width="136.41" height="176.58" filterUnits="userSpaceOnUse" color-interpolation-filters="sRGB"><feFlood flood-color="#fff" result="bg"/><feBlend in="SourceGraphic" in2="bg"/></filter><mask id="mask" x="0" y="0" width="136.41" height="176.58" maskUnits="userSpaceOnUse"><path class="cls-1" d="M41.16,129.44a14.66,14.66,0,0,1-14.64-14.65V86.63A14.67,14.67,0,0,1,37.08,72.56V69a29.9,29.9,0,1,1,59.8,0v3.53a14.68,14.68,0,0,1,10.56,14.07v28.16a14.66,14.66,0,0,1-14.65,14.65ZM69.93,72V69A3,3,0,1,0,64,69v3Z"/></mask></defs><g id="Layer_2" data-name="Layer 2"><g id="Layer_2-2" data-name="Layer 2"><g class="cls-2"><path class="cls-3" d="M19.31,13.47l-.38,0-.4-.07L18.4,13c-.31-1,.08-2.06,1.16-3.28A24.34,24.34,0,0,1,28.41,3.3a9.52,9.52,0,0,1,2.4-.61,6.8,6.8,0,0,1,.9-.06,6.62,6.62,0,0,1,.88.06,4.56,4.56,0,0,1,2.62,1.12l.32.37-.26.42a6.77,6.77,0,0,1-1.92,1.7C29,9,25.45,11.07,22.12,12.74A7.35,7.35,0,0,1,19.31,13.47Z"/><path class="cls-3" d="M19.31,12.8H19c-.29-.89.38-1.91,1-2.63a23.7,23.7,0,0,1,8.59-6.24,9.71,9.71,0,0,1,2.24-.57,7.37,7.37,0,0,1,.82-.05,7,7,0,0,1,.79.05,4,4,0,0,1,2.2.89A6,6,0,0,1,33,5.74c-4.31,2.71-7.86,4.74-11.17,6.4A6.62,6.62,0,0,1,19.31,12.8Z"/><path class="cls-3" d="M.4,69.28c-.62-.73-.4-2.34-.14-3a31.8,31.8,0,0,1,3.86-7.35c7-10,16.76-18.09,30-24.86a85.83,85.83,0,0,1,15.13-6c2.63-.77,5.32-1.41,8-1.91a17.76,17.76,0,0,1,2.28-.22,11.41,11.41,0,0,0,2.74-.35,2.81,2.81,0,0,0,1.9-1.58,1.48,1.48,0,0,0-.63-1.83,1.62,1.62,0,0,0-.67-.11c-.22,0-.43,0-.64,0l-2.84.22A80.25,80.25,0,0,0,47.1,23.85C29.41,28,15.9,35.71,5.8,47.29A5.61,5.61,0,0,1,3,49l-.59,0-.13-.57a5.56,5.56,0,0,1,1-3.37C7.57,39.23,13.35,34.25,21.45,29.5c13.29-7.81,25-11.44,37-11.44h.87a39,39,0,0,1,18.3,5.09A67.22,67.22,0,0,0,83.74,26c1.34.55,2.84,1.16,4.23,1.82,4.11,1.94,7.52,3.61,10.74,5.24l.32.17c2.81,1.42,6,3,7,6.55l-1.28.38A8.52,8.52,0,0,0,102.48,39a10.77,10.77,0,0,1-1-.43,23.72,23.72,0,0,1-2-1.25c-.6-.39-1.2-.79-1.83-1.14a55.57,55.57,0,0,0-8.24-3.7,54.2,54.2,0,0,0-8.54-2.25,57.8,57.8,0,0,0-8.8-.86l-1.4,0a65.94,65.94,0,0,0-7.62.45c-1.36.16-2.76.36-4.16.6a83.07,83.07,0,0,0-49.8,27.9,36.36,36.36,0,0,0-3.68,5.47C4.65,65,3.88,66.3,3,67.49a7.3,7.3,0,0,1-1.79,1.93l-.49.29Z"/><path class="cls-3" d="M.91,68.85a3.21,3.21,0,0,1,0-2.38,31.67,31.67,0,0,1,3.78-7.2c6.9-9.87,16.63-17.93,29.73-24.65a85.24,85.24,0,0,1,15-6,80,80,0,0,1,7.92-1.89c1.67-.32,3.47-.1,5.09-.59a3.51,3.51,0,0,0,2.34-2,2.14,2.14,0,0,0-1-2.69,3.39,3.39,0,0,0-1.62-.12C57.05,21.81,51.91,22,47,23.2c-17.84,4.22-31.46,12-41.66,23.65a4.94,4.94,0,0,1-2.37,1.51,5,5,0,0,1,.89-2.83c4.24-5.84,10-10.75,18-15.46C35,22.33,46.62,18.73,58.44,18.73h.86a38.46,38.46,0,0,1,18,5,64.87,64.87,0,0,0,6.21,2.82c1.39.57,2.82,1.16,4.18,1.8,3.6,1.7,7.18,3.43,10.72,5.24,2.9,1.47,6,2.94,7,6.31-.24-.81-2.94-1.61-3.64-2-1.32-.71-2.52-1.65-3.84-2.38a54.63,54.63,0,0,0-17-6,57.84,57.84,0,0,0-8.9-.88l-1.42,0a65,65,0,0,0-7.69.46c-1.39.15-2.8.36-4.21.6-20.14,3.5-37,13-50.18,28.12a36.62,36.62,0,0,0-3.76,5.58c-.73,1.25-1.49,2.54-2.31,3.71A6.31,6.31,0,0,1,.91,68.85Z"/><path class="cls-3" d="M1.79,88C.53,85.92,1,84,1.67,82.2,6.15,70.47,14,60.19,25.08,51.63,38.4,41.31,51.76,36.29,65.92,36.29c1.64,0,3.32.07,5,.21l.53,0a7.63,7.63,0,0,1,1.77.25l8.28,2.67c9.63,3.1,19.6,6.31,29.34,9.76,2,.68,3.6,2.58,5.19,4.42l.76.86a3.49,3.49,0,0,1,.62,1.9l0,.93-.88-.27a11,11,0,0,1-1.51-.68l-.6-.3c-1.51-.72-3-1.56-4.48-2.38a41.69,41.69,0,0,0-8.88-4.08,75.21,75.21,0,0,0-20.14-2.81c-12.6,0-25.23,3.4-37.53,10.11a57.13,57.13,0,0,1-7.94,3.33L33.4,61l-.12,0h-.14L32.68,61l-1.26-.22.9-.91c5.42-5.48,11.77-8.19,18.33-10.7,4.16-1.59,8.53-2.9,12.75-4.16,1.56-.46,3.08-.94,4.61-1.41l1.74-.51,2-.58c.31-.1.57-.32.56-.48a1,1,0,0,0-.08-.27,2.27,2.27,0,0,1-.17-.66,2.07,2.07,0,0,1,0-.43.25.25,0,0,1,0-.08l-1,0c-1.54-.06-3.15-.14-4.71-.14-12.09,0-24.11,4.32-36.76,13.2C16.59,62.73,7.87,74,3,87.91l-.47,1.36Z"/><path class="cls-3" d="M2.36,87.69c-1-1.72-.8-3.32-.07-5.25,4.44-11.61,12.24-21.8,23.2-30.29C38.69,41.93,51.92,37,65.92,37c1.63,0,3.29.07,4.94.2l.53,0a6.94,6.94,0,0,1,1.62.23l8.27,2.67c9.65,3.1,19.63,6.31,29.33,9.75,1.77.62,3.37,2.46,4.91,4.23l.76.86a2.91,2.91,0,0,1,.46,1.48,10,10,0,0,1-1.41-.64l-.61-.31c-1.49-.71-3-1.54-4.44-2.35a42.16,42.16,0,0,0-9-4.14,75.69,75.69,0,0,0-20.32-2.84c-12.71,0-25.45,3.43-37.85,10.19a56.15,56.15,0,0,1-7.86,3.29l-2,.75a2.33,2.33,0,0,1-.38,0c5.3-5.35,11.59-8.06,18.1-10.55,4.15-1.58,8.51-2.88,12.73-4.14,1.53-.46,3.06-.94,4.58-1.41,1.26-.38,2.53-.71,3.78-1.1C72.5,43,73,42.53,73,42c0-.33-.23-.62-.25-.95s.11-.63-.06-.88a.85.85,0,0,0-.7-.25c-1.87-.08-3.74-.18-5.61-.18C54.16,39.72,42,44.07,29.25,53,16.1,62.25,7.29,73.61,2.36,87.69Z"/><path class="cls-3" d="M101.14,140.27A57.71,57.71,0,0,1,72,132.73c-6.22-3.58-10.33-8-12.54-13.39s-1.9-10.49.79-14.51,7.56-6.33,13.38-6.36c7.61,0,13.78,3.29,18.82,6.51a29,29,0,0,0,15.76,4.83,31.07,31.07,0,0,0,11.32-2.24c5-1.95,10.42-4.85,12.5-11.53a2.81,2.81,0,0,1,1.14-1.62,1.41,1.41,0,0,1,.7-.19,1,1,0,0,1,.56.16,1.72,1.72,0,0,1,.48,1.35,15,15,0,0,1-.68,4,14.52,14.52,0,0,1-1.4,3.2,16.82,16.82,0,0,1-4.61,5,27.79,27.79,0,0,1-4.93,2.82,36.25,36.25,0,0,1-15,3.45,36.62,36.62,0,0,1-18.92-5.66,49.28,49.28,0,0,0-14.63-5.39,11.36,11.36,0,0,0-2.51-.28,9.68,9.68,0,0,0-8.75,5.45c-2,3.78-1.44,7.82,1.66,12.34,3.28,4.79,8,8.36,14.58,10.92a59.69,59.69,0,0,0,21.88,4.12,66.23,66.23,0,0,0,15.17-1.81,18.8,18.8,0,0,0,4.12-1.51,47.86,47.86,0,0,0,6-3.71c1.18-.81,2.33-1.6,3.49-2.31a13,13,0,0,1,3-1.52l1-.27-.23,1a7.09,7.09,0,0,1-1.62,2.9,36.3,36.3,0,0,1-22.94,11.27A75.11,75.11,0,0,1,101.14,140.27Z"/><path class="cls-3" d="M101.14,139.6a56.94,56.94,0,0,1-28.8-7.45c-6.1-3.5-10.11-7.77-12.27-13.06C58,114,58.24,109,60.8,105.2s7.24-6,12.83-6.06c7.45,0,13.51,3.24,18.46,6.4a29.62,29.62,0,0,0,16.12,4.94,31.75,31.75,0,0,0,11.56-2.29c5.17-2,10.74-5,12.9-12A2.18,2.18,0,0,1,133.5,95a.82.82,0,0,1,.37-.1.27.27,0,0,1,.17,0,1.12,1.12,0,0,1,.21.79,14.54,14.54,0,0,1-.66,3.83,13.4,13.4,0,0,1-1.34,3,16,16,0,0,1-4.43,4.76,27.05,27.05,0,0,1-4.81,2.75,33.74,33.74,0,0,1-33.31-2.18,50,50,0,0,0-14.84-5.46,12.1,12.1,0,0,0-2.65-.3A10.34,10.34,0,0,0,62.87,108c-2.11,4-1.55,8.28,1.69,13,3.36,4.9,8.24,8.56,14.9,11.17a60.5,60.5,0,0,0,22.12,4.16h0a66.58,66.58,0,0,0,15.33-1.83,19.82,19.82,0,0,0,4.25-1.56,48.37,48.37,0,0,0,6.08-3.76c1.13-.78,2.29-1.58,3.45-2.29a13.56,13.56,0,0,1,2.85-1.45,6.47,6.47,0,0,1-1.45,2.58,35.69,35.69,0,0,1-22.54,11.07A73.67,73.67,0,0,1,101.14,139.6Z"/><path class="cls-3" d="M5.15,108.51l-.18-1A23,23,0,0,1,4.42,102c.77-11.27,5.77-21.7,15.29-31.87a23.48,23.48,0,0,1,4.62-4,3.5,3.5,0,0,1,1.77-.3H27l-.21.83A3.49,3.49,0,0,1,26,68.28c-6.88,6.81-12,15.4-15.63,26.24-.74,2.21-1.31,4.51-1.86,6.73-.32,1.31-.64,2.62-1,3.92-.32,1.13-.7,2.26-1.07,3.36Z"/><path class="cls-3" d="M5.63,107.43a21.89,21.89,0,0,1-.54-5.35C5.85,91,10.79,80.68,20.2,70.62a22.9,22.9,0,0,1,4.48-3.93,3.34,3.34,0,0,1,1.42-.2,3.1,3.1,0,0,1-.54,1.31C18.61,74.69,13.44,83.36,9.77,94.31,9,96.55,8.45,98.86,7.9,101.09c-.33,1.31-.65,2.61-1,3.9-.3,1.11-.69,2.23-1.06,3.32l0,.09C5.75,108.08,5.69,107.75,5.63,107.43Z"/><path class="cls-3" d="M77.6,176.58a29.24,29.24,0,0,1-3.36-.17A198.56,198.56,0,0,1,51,172.58c-7.11-1.65-11.34-6.53-11.62-13.39-.33-8.36-2.72-16.25-5-23.87-.95-3.14-1.93-6.38-2.76-9.62a110.55,110.55,0,0,1-2.33-14.18c-.25-2.07-.49-4.11-.79-6.08L28.09,103l-.92,2.31a30.13,30.13,0,0,0-.84,18.53c1.05,4.19,2.33,8.39,3.56,12.45,1.16,3.85,2.37,7.81,3.37,11.75a17.49,17.49,0,0,1,.35,5.54l0,.55c-.07,1.36-.14,2.64-1,3.59a2.13,2.13,0,0,1-1.36.73h0A2.73,2.73,0,0,1,29,157.06c-.73-1.07-1.4-2.25-2.05-3.4l-1-1.74c-3-5.11-6.81-11.48-10-17.78-6.69-13.06-6.08-26.65,1.8-40.37,2-3.53,4.1-6.86,6.15-9.92l.47-.68c1.95-2.87,4-5.83,4.19-9.81a5.86,5.86,0,0,1,2.76-3.85L35.94,67c13.68-7.37,27.82-15,44.25-15l1.73,0c18.6.6,31.52,6,40.65,17a32,32,0,0,1,6.68,12.72,17.63,17.63,0,0,1-3.19,15.26c-3.81,4.8-10.12,7.55-17.3,7.56-5.41,0-10.07-2-15.59-4.5l-.51-.24c-5.38-2.48-10.94-5.05-16.72-6.55a20.42,20.42,0,0,0-5.16-.67c-8.32,0-15.36,5.3-18.37,13.85-2,5.59-.93,11.33,3.09,17C62,132.85,70.35,139,80.27,141.71a81,81,0,0,0,21.83,3.35,51.43,51.43,0,0,0,22.62-5,8.18,8.18,0,0,1,2.6-.56l1.43-.15-.67,1.17-.28.43a6.41,6.41,0,0,1-2.23,2.43c-.74.3-1.47.62-2.22.94-4,1.74-8.1,3.5-12.17,3.88-2.64.24-5.29.37-7.88.37a75.46,75.46,0,0,1-37.83-10,39.18,39.18,0,0,1-15.31-15.36,23.69,23.69,0,0,1,9.25-31.94A22.53,22.53,0,0,1,71,88.12a30.81,30.81,0,0,1,10.73,2.11c4.1,1.51,8.14,3.41,12.05,5.24,1.27.6,2.54,1.2,3.81,1.78A27,27,0,0,0,109,100.1a20.21,20.21,0,0,0,3.8-.36c5.32-1,9.5-4.06,11.46-8.37s1.52-9.52-1.24-14.24c-5.6-9.58-14.22-15.79-25.63-18.48a74.1,74.1,0,0,0-16.88-2c-18.47,0-34.73,8-48.33,23.71a108.21,108.21,0,0,0-9.44,13.41c-9.11,14.63-9.26,29.15-.44,43.17.41.65.79,1.33,1.17,2,.26.45.51.83.76,1.2a16.54,16.54,0,0,1,1,1.56c.15.29.46.8.86.86h0a1,1,0,0,0,.86-.71,2.72,2.72,0,0,0-.17-1.7c-.4-1.13-.69-2.27-1-3.38l-.29-1.14c-.59-2.22-1.08-3.89-1.6-5.43-6.14-18.21-1.22-34,15-48.36,2.85-2.51,5.93-4.87,8.9-7.16,1.9-1.46,3.86-3,5.75-4.5,3.6-2.93,7.81-3.58,12.28-4.27,1.35-.21,2.75-.42,4.14-.71a68.3,68.3,0,0,1,13.91-1.52,53,53,0,0,1,16.89,2.7c7.26,2.45,12.14,6,15.36,11.18,2.68,4.32,2.85,8.25.52,12a9.87,9.87,0,0,1-8.92,4.87,16.49,16.49,0,0,1-2.07-.14c-6.8-.91-12.51-4.58-18-8.13a27.92,27.92,0,0,0-15.13-4.36c-10.73,0-20.85,5.83-25.79,14.85s-5.18,18.81-.72,29.87a30,30,0,0,0,13.16,14.85c12.7,7.11,23.58,11.38,34.25,13.43a46,46,0,0,0,8.58.82,44.08,44.08,0,0,0,5.15-.31,46.32,46.32,0,0,0,6.78-1.31l.61-.18a6.8,6.8,0,0,1,2-.39h.29a3.29,3.29,0,0,0,.45,0,8.24,8.24,0,0,1,1.07-.09,3,3,0,0,1,.64.06l.38.1.11.38c.62,2.34-2.35,3.9-6.3,5.7-.65.3-1.27.58-1.81.85A45.5,45.5,0,0,1,91,165a49.11,49.11,0,0,1-5.95-.36,42.94,42.94,0,0,1-23.9-10.59C51.32,145,44.57,135,40.52,123.49,33.93,104.82,42.75,85.85,61,79.37A35.81,35.81,0,0,1,73,77.21a31.76,31.76,0,0,1,17.12,5.13,111.87,111.87,0,0,0,11.31,6.09,15.75,15.75,0,0,0,5.71,1.41l.53,0a6.06,6.06,0,0,0,5.1-2.45,6.45,6.45,0,0,0,.51-6c-2.22-6-11.64-11.86-19-11.86l-.71,0-2.19.12L93.2,70.8c.65.39,1.25.72,1.8,1a15.62,15.62,0,0,1,2.65,1.67c2.8,2.38,6,5.18,9,8.19l.13.13,0,.18a5.83,5.83,0,0,1,0,1.53l-.09.58h-.59a4.41,4.41,0,0,1-1.85-.24l-.1-.06-.07-.08c-6.15-6.93-14.66-9.33-22.89-11.66l-.47-.13a28.07,28.07,0,0,0-7.65-1c-11,0-23,5.58-30.69,14.21a34.33,34.33,0,0,0-8.72,27.46c2.51,21.09,9.59,35.75,22.3,46.13a50.83,50.83,0,0,0,24.24,11.19,25,25,0,0,0,4,.28c1.18,0,2.31-.05,3.37-.12l1-.06c1.35-.08,2.7-.17,4-.22.43,0,1-.06,1.52-.11s1.42-.11,2-.13l1.14,0-.61,1.16a8.48,8.48,0,0,0-.52,1.06,4.4,4.4,0,0,1-1.07,1.77,5.15,5.15,0,0,1-1.07.68,10.36,10.36,0,0,0-.93.55,7.57,7.57,0,0,0-.63.49,4.14,4.14,0,0,1-.94.66,3.24,3.24,0,0,1-1.13.14H88.15l-1.12.06c-1.06,0-2.12.11-3.17.18l-.55,0C81.41,176.45,79.48,176.58,77.6,176.58ZM44,154.8A.78.78,0,0,1,44,155l.06.13a4.33,4.33,0,0,1,.18.73,6.69,6.69,0,0,1-.29,2.53,9.69,9.69,0,0,0-.26,1.28,8.47,8.47,0,0,0,1,4.31,8.15,8.15,0,0,0,5,4.13c3.07.91,6.15,1.55,9,2.1l4.59.85.45.1a5.59,5.59,0,0,0,1.19.2h0c.37,0,.37-.05.37-.27,0-1.1-3.81-3.53-6.59-5.31-1.71-1.09-3.48-2.22-4.8-3.25s-2.44-2.12-3.57-3.2l-1.52-1.43c-.21-.19-.42-.39-.64-.61-1.15-1.11-2.59-2.48-4-2.48Zm19.28-5.47a.45.45,0,0,0,.08.16,7.69,7.69,0,0,0,1.85,1.89c.36.29.7.57,1,.87l.17.16a41.45,41.45,0,0,0,3.15,2.78A26.85,26.85,0,0,0,74,157.94c.7.33,1.42.63,2.13.89a25.46,25.46,0,0,0,6.79,1.48c.39,0,.78,0,1.16,0a27.73,27.73,0,0,0,6.07-.82c.73-.16.71-.37.7-.62a6,6,0,0,0-1-.58l-.22-.11a39.8,39.8,0,0,0-3.92-1.79c-3.31-1.36-6.93-2.67-11.39-4.11l-.25-.08a80.49,80.49,0,0,0-9.52-2.67l-.39-.08a4.17,4.17,0,0,0-.85-.14v-.67l-.08.67Z"/><path class="cls-3" d="M77.6,175.92a30.34,30.34,0,0,1-3.29-.17,197.52,197.52,0,0,1-23.19-3.82c-6.79-1.58-10.84-6.23-11.1-12.77-.34-8.44-2.73-16.37-5.05-24C34,132,33,128.75,32.22,125.53a110.05,110.05,0,0,1-2.32-14.09c-.25-2.07-.49-4.12-.78-6.1l-.73-4.91L26.55,105A30.78,30.78,0,0,0,25.69,124c1,4.21,2.33,8.42,3.56,12.49,1.16,3.83,2.36,7.79,3.36,11.71a16.83,16.83,0,0,1,.34,5.34l0,.55c-.07,1.29-.13,2.4-.85,3.17a1.58,1.58,0,0,1-.93.53,2.14,2.14,0,0,1-1.53-1.08c-.73-1.06-1.39-2.24-2-3.38-.33-.58-.66-1.16-1-1.73-3-5.1-6.8-11.46-10-17.75C10,121,10.57,107.62,18.33,94.1c2-3.52,4.08-6.84,6.13-9.87l.46-.69c2-2.94,4.07-6,4.31-10.14a5.23,5.23,0,0,1,2.4-3.3c1.55-.82,3.09-1.66,4.63-2.49C49.86,60.28,63.93,52.7,80.19,52.7l1.71,0c18.39.59,31.15,5.93,40.16,16.8A31.21,31.21,0,0,1,128.6,82a17,17,0,0,1-3.06,14.7c-3.69,4.63-9.8,7.29-16.78,7.3-5.28,0-9.86-1.93-15.31-4.44l-.51-.23c-5.41-2.5-11-5.08-16.83-6.6A21.31,21.31,0,0,0,70.78,92c-8.62,0-15.9,5.47-19,14.29-2.05,5.82-1,11.76,3.18,17.67,6.61,9.39,15.06,15.58,25.13,18.39a82,82,0,0,0,22,3.37A52,52,0,0,0,125,140.65a7.64,7.64,0,0,1,2.38-.49l.14,0-.29.43a6.13,6.13,0,0,1-1.93,2.18q-1.16.48-2.31,1c-3.89,1.68-7.91,3.41-11.88,3.78-2.62.25-5.26.37-7.82.37A74.83,74.83,0,0,1,65.8,138a38.53,38.53,0,0,1-15-15.1,23,23,0,0,1,9-31A21.9,21.9,0,0,1,71,88.79a30.24,30.24,0,0,1,10.5,2.07c4.07,1.5,8.1,3.39,12,5.22l3.82,1.78a27.46,27.46,0,0,0,11.66,2.9,20.65,20.65,0,0,0,3.92-.37c5.54-1,9.9-4.24,12-8.74s1.6-9.94-1.27-14.85c-5.7-9.75-14.46-16.07-26-18.8a75,75,0,0,0-17-2.07c-18.67,0-35.1,8.06-48.83,23.94a108,108,0,0,0-9.5,13.5c-9.27,14.86-9.41,29.62-.44,43.88.41.65.79,1.33,1.18,2,.52.93,1.17,1.72,1.66,2.68a2.06,2.06,0,0,0,1.36,1.22A1.59,1.59,0,0,0,27.54,142a3.44,3.44,0,0,0-.18-2.12c-.52-1.49-.84-2.95-1.25-4.47-.48-1.84-1-3.67-1.61-5.48-6-17.92-1.19-33.5,14.84-47.64,2.82-2.49,5.89-4.85,8.86-7.13,1.9-1.46,3.86-3,5.76-4.51,3.46-2.82,7.59-3.45,12-4.13,1.37-.21,2.79-.43,4.18-.72a67.62,67.62,0,0,1,13.77-1.5A51.89,51.89,0,0,1,100.54,67c7.11,2.39,11.88,5.85,15,10.9,2.53,4.07,2.69,7.77.51,11.3a9.24,9.24,0,0,1-8.35,4.55,15.18,15.18,0,0,1-2-.13c-6.65-.89-12.3-4.52-17.77-8a28.56,28.56,0,0,0-15.49-4.47c-11,0-21.32,6-26.37,15.2s-5.3,19.19-.76,30.44A30.73,30.73,0,0,0,58.8,141.91c12.77,7.15,23.71,11.44,34.46,13.5a46.36,46.36,0,0,0,8.7.83,45.42,45.42,0,0,0,5.22-.3,47.73,47.73,0,0,0,6.88-1.34c.25-.06.48-.13.71-.2a6,6,0,0,1,1.7-.35h.3a3.4,3.4,0,0,0,.53,0,7.49,7.49,0,0,1,1-.09,1.94,1.94,0,0,1,.48,0c.49,1.83-2.39,3.31-5.93,4.92-.65.3-1.28.59-1.83.86a44.74,44.74,0,0,1-20,4.58,47.93,47.93,0,0,1-5.87-.36,42.29,42.29,0,0,1-23.53-10.41c-9.74-9-16.42-18.93-20.44-30.3C34.69,105,43.33,86.35,61.25,80A35.3,35.3,0,0,1,73,77.88a31.05,31.05,0,0,1,16.77,5A111,111,0,0,0,101.09,89a16.24,16.24,0,0,0,6,1.47,5.43,5.43,0,0,0,.57,0,6.71,6.71,0,0,0,5.65-2.73,7.16,7.16,0,0,0,.59-6.63c-2.3-6.2-12-12.28-19.64-12.28-.25,0-.5,0-.75,0l-4.37.23,3.76,2.25c.66.39,1.26.73,1.82,1A15.28,15.28,0,0,1,97.21,74c2.8,2.38,6,5.16,8.92,8.14a4.79,4.79,0,0,1,0,1.28,5.82,5.82,0,0,1-1.54-.15c-6.28-7.08-14.89-9.51-23.21-11.86l-.46-.14a29.07,29.07,0,0,0-7.84-1c-11.16,0-23.4,5.67-31.19,14.44a35,35,0,0,0-8.89,28c2.54,21.27,9.7,36.07,22.54,46.56a51.45,51.45,0,0,0,24.56,11.34,25.23,25.23,0,0,0,4.06.29c1.22,0,2.4-.06,3.41-.12l1-.06c1.34-.09,2.69-.17,4-.23.44,0,1-.06,1.54-.1s1.39-.11,2-.13c0,.05,0,.1-.07.14a11.39,11.39,0,0,0-.55,1.14,3.81,3.81,0,0,1-.9,1.51,4.58,4.58,0,0,1-1,.6,9.7,9.7,0,0,0-1,.58c-.24.16-.46.35-.68.53a4.48,4.48,0,0,1-.78.56,2.7,2.7,0,0,1-.86.09l-1.87,0h-.38l-1.12.06c-1.07.06-2.13.11-3.19.19l-.55,0C81.4,175.78,79.47,175.92,77.6,175.92Zm-34-20c.16,1.21-.43,2.46-.56,3.65a9,9,0,0,0,1.08,4.68,8.87,8.87,0,0,0,5.39,4.47,91.4,91.4,0,0,0,9.09,2.11l4.6.86c.81.15,2.79.88,2.8-.62,0-2.2-7.76-6.07-11.64-9.1-1.8-1.4-3.39-3.06-5.06-4.6-1.42-1.3-3.31-3.49-5.47-3.24a.64.64,0,0,0-.53.34,1.24,1.24,0,0,0,.15.87A2.91,2.91,0,0,1,43.61,155.93Zm22.11-3.2c1.09,1,2.19,2.08,3.37,3a28.48,28.48,0,0,0,4.64,2.83c.71.33,1.45.64,2.19.91a26.49,26.49,0,0,0,7,1.52,25.41,25.41,0,0,0,7.42-.79c.74-.17,1.28-.49,1.22-1.32,0-.55-1.18-1-1.57-1.24a38.6,38.6,0,0,0-4-1.82c-3.75-1.54-7.58-2.88-11.44-4.13a84,84,0,0,0-9.84-2.76,6.07,6.07,0,0,0-1.5-.23.68.68,0,0,0-.62.42.9.9,0,0,0,.15.72C63.41,151,64.74,151.81,65.72,152.73Z"/><path class="cls-3" d="M96.63,130.88a35.78,35.78,0,0,1-10.54-1.54,30.67,30.67,0,0,1-15.65-11,6.24,6.24,0,0,1,4.41-10.11,6,6,0,0,1,1.39.17,30.61,30.61,0,0,1,9.61,3.72,41.71,41.71,0,0,0,22.85,7.18c7.1,0,14.56-2,22.19-5.93a11.9,11.9,0,0,0,1.18-.71,5.92,5.92,0,0,1,2.6-1.16,1.53,1.53,0,0,1,1.3.82,2.13,2.13,0,0,1,.41,1.64c-.19,1-1.14,2.12-2.84,3.28l-2.36,1.63a71.35,71.35,0,0,1-11.52,7l-1.24.53a66.34,66.34,0,0,1-18.11,4.29C99.08,130.82,97.84,130.88,96.63,130.88ZM74.94,112.63a1.52,1.52,0,0,0-1.29.47c-.05.07,0,.17.17.57l.15.3a10,10,0,0,0,.6,1.23,22,22,0,0,0,6,6.7,22.13,22.13,0,0,0,6.1,3.2,34.79,34.79,0,0,0,7,1.68,33.23,33.23,0,0,0,4.14.25c2.32,0,5.49,0,7.84-1a2.7,2.7,0,0,0,1.59-1.47,1.39,1.39,0,0,0-.49-1.64,2.68,2.68,0,0,0-1.07-.23c-2.19-.2-4.36-.39-6.54-.56-2-.16-4.3-.34-6.54-.6l-1-.1a8,8,0,0,1-4.71-1.42,12.32,12.32,0,0,1-1.71-1.84l-.59-.7a16.34,16.34,0,0,0-5.65-3.78l-.64-.28A9.58,9.58,0,0,0,74.94,112.63Z"/><path class="cls-3" d="M96.63,130.21a35.13,35.13,0,0,1-10.34-1.51A30.07,30.07,0,0,1,71,118a5.57,5.57,0,0,1,3.88-9,5.24,5.24,0,0,1,1.23.15,29.76,29.76,0,0,1,9.4,3.63A42.43,42.43,0,0,0,108.7,120h0c7.2,0,14.77-2,22.5-6,.39-.2.8-.46,1.23-.73a5.75,5.75,0,0,1,2.24-1.06c.13,0,.38,0,.75.53a1.42,1.42,0,0,1,.3,1.14c-.1.57-.63,1.53-2.56,2.85l-2.36,1.63a70.77,70.77,0,0,1-11.41,6.94l-1.21.52a65.76,65.76,0,0,1-17.93,4.25c-1.22.11-2.43.16-3.62.16ZM79.19,113.12l-.66-.28c-1.3-.53-4.36-1.61-5.42-.13-.37.52,0,1.05.25,1.53a11,11,0,0,0,.63,1.29,22.49,22.49,0,0,0,1.75,2.58,23.34,23.34,0,0,0,4.45,4.32,23,23,0,0,0,6.28,3.31,33.64,33.64,0,0,0,11.36,2c2.57,0,5.67,0,8.09-1a3.37,3.37,0,0,0,2-1.87,2.06,2.06,0,0,0-.79-2.44,3.42,3.42,0,0,0-1.34-.32c-2.18-.19-4.37-.39-6.55-.56s-4.35-.34-6.51-.59c-1.82-.22-3.93-.14-5.4-1.37a21,21,0,0,1-2.23-2.47A17.12,17.12,0,0,0,79.19,113.12Z"/><path class="cls-3" d="M8.6,30.21l-.75-.05L8,29.43A3.16,3.16,0,0,1,8.61,28a3.69,3.69,0,0,1,.61-.55l1.06-.81q2-1.55,4.11-3.06t4.16-3q2.1-1.49,4.21-2.93l.89-.61c4-2.74,8.23-5.39,12.28-8l2.51-1.58C40.71,6,43,4.62,45.29,3.23l3-1.84.06,0A21.82,21.82,0,0,1,55.64,0a16.45,16.45,0,0,1,8.89,2.6c6.54,4.14,13,8.62,19.29,13L87.42,18a9.47,9.47,0,0,1,2,2,4,4,0,0,1,.84,2.29l0,.61-.62.1h-.17c-.21,0-.43,0-.64,0a4,4,0,0,1-1-.1,3,3,0,0,1-1.26-.75L86.49,22c-.6-.49-1.2-1-1.83-1.44a39,39,0,0,0-11.58-5.92A42.87,42.87,0,0,0,64.88,13a52.23,52.23,0,0,0-5.68-.3q-1.39,0-2.79.06a78.64,78.64,0,0,0-8.67.92l-.17,0A80.65,80.65,0,0,0,13,28.38c-.21.15-.41.32-.61.49a5.86,5.86,0,0,1-.78.6,5.34,5.34,0,0,1-1.48.55,5.79,5.79,0,0,1-1.36.19ZM54.86,4.78A15.77,15.77,0,0,0,44.78,8.44L43.19,9.76l21.1-1.51L62.75,7.17A13.72,13.72,0,0,0,54.86,4.78Z"/><path class="cls-3" d="M8.64,29.54a2.68,2.68,0,0,1,.49-1.18,2.93,2.93,0,0,1,.5-.43l1-.8q2-1.56,4.11-3.06c1.37-1,2.76-2,4.15-3s2.79-2,4.2-2.92l.88-.61c4-2.75,8.26-5.41,12.33-8L38.8,8c2.26-1.43,4.55-2.82,6.83-4.21l3-1.81a21.1,21.1,0,0,1,7-1.32,15.71,15.71,0,0,1,8.53,2.5c6.53,4.13,13,8.61,19.28,12.94L87,18.58a8.8,8.8,0,0,1,1.9,1.82,3.26,3.26,0,0,1,.7,1.9v0l-.15,0-.59,0a3.44,3.44,0,0,1-.83-.08,2.42,2.42,0,0,1-1-.61l-.17-.15c-.6-.49-1.22-1-1.85-1.45a41.13,41.13,0,0,0-3.81-2.52,39.64,39.64,0,0,0-8-3.51A44.07,44.07,0,0,0,65,12.32,53.54,53.54,0,0,0,59.2,12c-.94,0-1.88,0-2.82.07a77.44,77.44,0,0,0-8.74.92l-.18,0a81.11,81.11,0,0,0-34.85,14.8,8.06,8.06,0,0,0-.66.53,5.38,5.38,0,0,1-.68.52,4.39,4.39,0,0,1-1.3.48,4.91,4.91,0,0,1-1.2.17ZM54.86,4.11A16.43,16.43,0,0,0,44.35,7.92l-3.19,2.66,25-1.8L63.13,6.62A14.35,14.35,0,0,0,54.86,4.11Z"/></g><path class="cls-4" d="M100.08,85.31v28.37a7.1,7.1,0,0,1-7.1,7.09H41a7.1,7.1,0,0,1-7.09-7.09V85.31A7.09,7.09,0,0,1,41,78.22h3.55V67.58a22.46,22.46,0,1,1,44.92,0V78.22H93A7.09,7.09,0,0,1,100.08,85.31ZM77.62,67.58a10.64,10.64,0,0,0-21.28,0V78.22H77.62Z"/></g></g></svg>